<svg xmlns="http://www.w3.org/2000/svg" xmlns:xlink="http://www.w3.org/1999/xlink" width="400" zoomAndPan="magnify" viewBox="0 0 300 135.000003" height="180" preserveAspectRatio="xMidYMid meet" version="1.0"><defs><g/><clipPath id="434938320f"><path d="M 6.125 17 L 102.589844 17 L 102.589844 125.175781 L 6.125 125.175781 Z M 6.125 17 " clip-rule="nonzero"/></clipPath><clipPath id="aa7b5b264f"><path d="M 258.21875 9.148438 L 294.226562 9.148438 L 294.226562 45.316406 L 258.21875 45.316406 Z M 258.21875 9.148438 " clip-rule="nonzero"/></clipPath></defs><path fill="#082c59" d="M 61.738281 87.1875 C 61.738281 87.1875 61.785156 87.148438 61.878906 87.078125 C 61.972656 87.007812 62.109375 86.902344 62.308594 86.777344 C 62.507812 86.65625 62.761719 86.515625 63.078125 86.367188 C 63.394531 86.222656 63.773438 86.066406 64.234375 85.953125 C 64.6875 85.839844 65.222656 85.75 65.828125 85.765625 C 66.433594 85.78125 67.113281 85.886719 67.804688 86.164062 C 68.152344 86.296875 68.5 86.46875 68.839844 86.679688 C 69.183594 86.886719 69.511719 87.140625 69.828125 87.417969 C 70.460938 87.976562 71.039062 88.660156 71.535156 89.429688 C 71.597656 89.523438 71.65625 89.617188 71.71875 89.710938 C 71.777344 89.808594 71.835938 89.90625 71.898438 90.003906 C 72.015625 90.199219 72.128906 90.394531 72.242188 90.59375 C 72.464844 90.996094 72.679688 91.410156 72.890625 91.835938 C 73.097656 92.261719 73.300781 92.699219 73.503906 93.144531 C 73.699219 93.59375 73.890625 94.054688 74.082031 94.523438 C 74.269531 94.988281 74.460938 95.464844 74.648438 95.953125 C 74.828125 96.4375 75.011719 96.933594 75.195312 97.4375 C 75.378906 97.9375 75.566406 98.449219 75.753906 98.964844 C 75.933594 99.480469 76.121094 100.007812 76.308594 100.539062 C 76.496094 101.0625 76.691406 101.597656 76.886719 102.136719 C 77.082031 102.675781 77.28125 103.21875 77.488281 103.761719 C 77.699219 104.300781 77.917969 104.84375 78.144531 105.378906 C 78.371094 105.917969 78.605469 106.457031 78.859375 106.976562 C 79.109375 107.5 79.378906 108.011719 79.664062 108.492188 C 79.945312 108.980469 80.25 109.441406 80.570312 109.851562 C 80.890625 110.261719 81.230469 110.621094 81.570312 110.894531 C 81.910156 111.171875 82.242188 111.371094 82.585938 111.492188 C 82.925781 111.617188 83.289062 111.667969 83.710938 111.652344 C 83.921875 111.648438 84.148438 111.625 84.386719 111.582031 C 84.449219 111.566406 84.507812 111.558594 84.570312 111.542969 L 84.660156 111.523438 C 84.6875 111.515625 84.597656 111.542969 84.664062 111.519531 L 84.730469 111.503906 C 84.761719 111.492188 84.773438 111.488281 84.757812 111.492188 C 84.753906 111.492188 84.753906 111.492188 84.75 111.496094 C 84.734375 111.503906 84.753906 111.492188 84.761719 111.492188 C 84.78125 111.484375 84.800781 111.472656 84.820312 111.464844 C 84.898438 111.425781 84.992188 111.363281 85.105469 111.253906 C 85.21875 111.148438 85.34375 110.992188 85.472656 110.800781 C 85.734375 110.414062 85.988281 109.886719 86.207031 109.296875 C 86.652344 108.113281 86.984375 106.707031 87.265625 105.253906 C 87.542969 103.792969 87.773438 102.265625 87.992188 100.699219 C 88.847656 94.421875 89.550781 87.589844 91.058594 80.597656 C 91.808594 77.097656 92.753906 73.554688 94.035156 70.046875 C 95.316406 66.546875 96.929688 63.078125 99.007812 59.816406 C 101.082031 56.5625 103.628906 53.523438 106.636719 50.972656 C 109.632812 48.414062 113.054688 46.355469 116.667969 44.847656 C 120.285156 43.335938 124.078125 42.355469 127.875 41.789062 C 131.671875 41.21875 135.488281 41.039062 139.222656 41.125 C 146.722656 41.273438 153.976562 42.394531 160.871094 43.8125 C 164.320312 44.53125 167.679688 45.335938 170.953125 46.15625 C 174.222656 46.980469 177.40625 47.828125 180.5 48.65625 C 183.59375 49.488281 186.597656 50.292969 189.511719 51.042969 C 192.421875 51.800781 195.238281 52.5 197.949219 53.125 C 200.664062 53.746094 203.273438 54.308594 205.765625 54.777344 C 208.257812 55.25 210.632812 55.636719 212.871094 55.949219 C 217.351562 56.574219 221.289062 56.878906 224.539062 56.988281 C 227.789062 57.109375 230.347656 57.019531 232.089844 56.949219 C 232.527344 56.929688 232.914062 56.910156 233.246094 56.894531 C 233.578125 56.871094 233.855469 56.851562 234.082031 56.839844 C 234.53125 56.808594 234.765625 56.792969 234.765625 56.792969 C 234.765625 56.792969 234.53125 56.824219 234.085938 56.878906 C 233.859375 56.90625 233.582031 56.941406 233.253906 56.980469 C 232.921875 57.015625 232.539062 57.058594 232.101562 57.105469 C 231.667969 57.152344 231.183594 57.195312 230.644531 57.238281 C 230.109375 57.289062 229.523438 57.324219 228.890625 57.367188 C 228.257812 57.414062 227.578125 57.433594 226.851562 57.472656 C 226.125 57.496094 225.351562 57.527344 224.535156 57.535156 C 222.898438 57.5625 221.085938 57.558594 219.117188 57.480469 C 217.144531 57.402344 215.015625 57.265625 212.742188 57.054688 C 208.203125 56.625 203.101562 55.890625 197.59375 54.832031 C 194.835938 54.304688 191.976562 53.710938 189.027344 53.058594 C 186.078125 52.410156 183.042969 51.703125 179.921875 50.980469 C 173.683594 49.542969 167.125 47.996094 160.300781 46.78125 C 156.890625 46.171875 153.414062 45.644531 149.886719 45.273438 C 146.363281 44.90625 142.78125 44.691406 139.199219 44.695312 C 135.601562 44.695312 132.011719 44.945312 128.476562 45.554688 C 124.949219 46.164062 121.488281 47.125 118.25 48.550781 C 115.011719 49.96875 112.007812 51.855469 109.394531 54.167969 C 106.777344 56.476562 104.542969 59.191406 102.71875 62.15625 C 100.886719 65.117188 99.449219 68.308594 98.304688 71.582031 C 97.164062 74.855469 96.296875 78.207031 95.613281 81.554688 C 94.929688 84.902344 94.425781 88.25 93.996094 91.554688 C 93.5625 94.863281 93.21875 98.128906 92.796875 101.347656 C 92.585938 102.960938 92.355469 104.5625 92.058594 106.164062 C 91.753906 107.765625 91.40625 109.367188 90.804688 111.011719 C 90.5 111.835938 90.128906 112.679688 89.570312 113.53125 C 89.285156 113.953125 88.957031 114.382812 88.542969 114.785156 C 88.132812 115.191406 87.632812 115.570312 87.0625 115.863281 C 86.921875 115.9375 86.777344 116.003906 86.628906 116.066406 C 86.550781 116.09375 86.488281 116.121094 86.386719 116.15625 L 86.25 116.203125 L 86.148438 116.238281 L 85.957031 116.292969 L 85.785156 116.339844 C 85.675781 116.375 85.558594 116.398438 85.441406 116.429688 C 84.980469 116.539062 84.492188 116.613281 83.992188 116.652344 C 82.992188 116.714844 81.929688 116.59375 80.949219 116.253906 C 79.96875 115.921875 79.09375 115.402344 78.375 114.816406 C 77.660156 114.222656 77.078125 113.574219 76.582031 112.921875 C 76.089844 112.269531 75.679688 111.613281 75.316406 110.960938 C 74.960938 110.308594 74.65625 109.660156 74.378906 109.023438 C 74.101562 108.382812 73.859375 107.757812 73.632812 107.136719 C 73.410156 106.515625 73.214844 105.90625 73.027344 105.304688 C 72.84375 104.707031 72.667969 104.117188 72.507812 103.539062 C 72.347656 102.960938 72.203125 102.386719 72.0625 101.828125 C 71.921875 101.273438 71.785156 100.726562 71.652344 100.1875 C 71.527344 99.652344 71.40625 99.125 71.285156 98.609375 C 71.046875 97.585938 70.8125 96.605469 70.589844 95.660156 C 70.476562 95.191406 70.363281 94.738281 70.246094 94.296875 C 70.132812 93.851562 70.019531 93.425781 69.898438 93.011719 C 69.78125 92.597656 69.652344 92.199219 69.527344 91.816406 C 69.464844 91.625 69.402344 91.433594 69.335938 91.25 C 69.300781 91.164062 69.269531 91.074219 69.238281 90.984375 C 69.203125 90.894531 69.167969 90.808594 69.132812 90.71875 C 68.863281 90.050781 68.550781 89.453125 68.191406 88.953125 C 67.832031 88.453125 67.429688 88.042969 66.996094 87.730469 C 66.5625 87.421875 66.101562 87.203125 65.644531 87.0625 C 65.1875 86.925781 64.738281 86.859375 64.328125 86.839844 C 63.503906 86.800781 62.839844 86.910156 62.402344 87.007812 C 61.964844 87.105469 61.738281 87.1875 61.738281 87.1875 " fill-opacity="1" fill-rule="nonzero"/><path fill="#4d75a6" d="M 106.015625 47.832031 C 106.015625 47.832031 106.09375 47.679688 106.246094 47.390625 C 106.320312 47.246094 106.414062 47.066406 106.527344 46.851562 C 106.644531 46.636719 106.785156 46.394531 106.941406 46.117188 C 107.097656 45.839844 107.285156 45.535156 107.492188 45.203125 C 107.691406 44.863281 107.925781 44.503906 108.179688 44.117188 C 108.429688 43.726562 108.722656 43.324219 109.027344 42.886719 C 109.183594 42.667969 109.355469 42.453125 109.523438 42.226562 C 109.609375 42.113281 109.695312 41.996094 109.785156 41.882812 C 109.878906 41.769531 109.96875 41.652344 110.0625 41.535156 C 110.808594 40.59375 111.699219 39.601562 112.734375 38.578125 C 113.769531 37.550781 114.964844 36.515625 116.320312 35.5 C 117.675781 34.484375 119.203125 33.511719 120.882812 32.609375 C 122.558594 31.703125 124.402344 30.894531 126.375 30.1875 C 128.34375 29.480469 130.449219 28.898438 132.65625 28.433594 C 134.859375 27.96875 137.167969 27.648438 139.542969 27.433594 C 140.730469 27.328125 141.9375 27.257812 143.160156 27.21875 L 143.621094 27.203125 L 144.09375 27.195312 C 144.390625 27.1875 144.691406 27.183594 144.992188 27.179688 C 145.585938 27.164062 146.222656 27.171875 146.851562 27.175781 C 149.359375 27.191406 151.886719 27.339844 154.460938 27.5625 C 157.03125 27.78125 159.632812 28.109375 162.246094 28.511719 C 162.898438 28.605469 163.554688 28.714844 164.207031 28.824219 C 164.867188 28.929688 165.519531 29.046875 166.175781 29.160156 C 167.492188 29.394531 168.804688 29.652344 170.121094 29.917969 C 171.4375 30.183594 172.753906 30.464844 174.070312 30.753906 C 174.730469 30.898438 175.386719 31.046875 176.046875 31.191406 C 176.703125 31.34375 177.363281 31.496094 178.023438 31.652344 C 180.652344 32.273438 183.28125 32.917969 185.90625 33.566406 C 191.144531 34.886719 196.355469 36.199219 201.484375 37.386719 C 202.769531 37.679688 204.046875 37.964844 205.320312 38.234375 C 206.59375 38.511719 207.863281 38.773438 209.121094 39.023438 C 211.644531 39.523438 214.144531 39.953125 216.601562 40.332031 C 221.527344 41.078125 226.3125 41.53125 230.859375 41.660156 C 233.132812 41.734375 235.347656 41.722656 237.488281 41.632812 C 239.625 41.550781 241.691406 41.398438 243.671875 41.179688 C 245.648438 40.960938 247.539062 40.703125 249.332031 40.375 C 250.230469 40.234375 251.09375 40.042969 251.945312 39.882812 C 252.367188 39.800781 252.78125 39.699219 253.191406 39.609375 C 253.601562 39.515625 254.003906 39.425781 254.402344 39.335938 C 257.566406 38.582031 260.296875 37.761719 262.527344 37.007812 C 263.085938 36.828125 263.609375 36.632812 264.105469 36.457031 C 264.597656 36.285156 265.066406 36.128906 265.492188 35.960938 C 265.921875 35.800781 266.320312 35.652344 266.683594 35.515625 C 266.867188 35.445312 267.039062 35.378906 267.203125 35.320312 C 267.367188 35.253906 267.519531 35.1875 267.667969 35.128906 C 268.847656 34.660156 269.472656 34.410156 269.472656 34.410156 C 269.472656 34.410156 268.890625 34.75 267.792969 35.394531 C 266.6875 36.015625 265.054688 36.921875 262.910156 37.953125 C 262.367188 38.203125 261.800781 38.46875 261.203125 38.746094 C 260.597656 39.003906 259.964844 39.277344 259.300781 39.5625 C 258.640625 39.839844 257.941406 40.105469 257.214844 40.390625 C 256.492188 40.667969 255.730469 40.933594 254.945312 41.21875 C 251.792969 42.300781 248.152344 43.316406 244.101562 44.085938 C 243.59375 44.175781 243.082031 44.265625 242.5625 44.359375 C 242.042969 44.449219 241.519531 44.519531 240.988281 44.601562 C 240.722656 44.640625 240.457031 44.683594 240.1875 44.71875 C 239.917969 44.753906 239.648438 44.789062 239.378906 44.824219 C 238.835938 44.886719 238.289062 44.96875 237.734375 45.019531 C 235.523438 45.265625 233.222656 45.402344 230.855469 45.472656 C 226.125 45.601562 221.128906 45.371094 216.019531 44.785156 C 213.460938 44.503906 210.878906 44.121094 208.273438 43.683594 C 206.976562 43.464844 205.667969 43.230469 204.359375 42.984375 C 203.054688 42.730469 201.742188 42.460938 200.433594 42.183594 C 195.183594 41.085938 189.921875 39.769531 184.683594 38.476562 C 182.066406 37.816406 179.457031 37.160156 176.859375 36.53125 C 175.558594 36.222656 174.265625 35.910156 172.972656 35.601562 C 171.679688 35.296875 170.394531 35 169.109375 34.71875 C 167.824219 34.433594 166.546875 34.167969 165.273438 33.910156 C 164.636719 33.777344 164 33.648438 163.367188 33.527344 C 162.734375 33.40625 162.101562 33.28125 161.46875 33.171875 C 158.945312 32.714844 156.449219 32.332031 153.988281 32.015625 C 153.679688 31.976562 153.371094 31.9375 153.066406 31.898438 C 152.757812 31.863281 152.453125 31.832031 152.148438 31.796875 C 151.84375 31.765625 151.539062 31.730469 151.234375 31.699219 C 150.929688 31.671875 150.625 31.640625 150.324219 31.613281 C 150.019531 31.585938 149.71875 31.558594 149.414062 31.53125 C 149.113281 31.503906 148.8125 31.488281 148.515625 31.464844 C 147.914062 31.417969 147.316406 31.371094 146.730469 31.34375 C 146.140625 31.308594 145.566406 31.269531 144.957031 31.257812 C 144.65625 31.246094 144.355469 31.234375 144.054688 31.226562 L 143.832031 31.21875 L 143.71875 31.214844 C 143.695312 31.214844 143.722656 31.214844 143.6875 31.214844 L 143.632812 31.210938 L 143.195312 31.207031 C 142.039062 31.1875 140.894531 31.199219 139.765625 31.226562 C 135.261719 31.355469 131.027344 31.941406 127.246094 32.972656 C 123.464844 33.992188 120.148438 35.457031 117.40625 37.113281 C 114.660156 38.769531 112.476562 40.582031 110.8125 42.214844 C 109.140625 43.847656 107.960938 45.28125 107.183594 46.277344 C 106.988281 46.527344 106.820312 46.75 106.671875 46.941406 C 106.527344 47.136719 106.40625 47.300781 106.308594 47.429688 C 106.113281 47.695312 106.015625 47.832031 106.015625 47.832031 " fill-opacity="1" fill-rule="nonzero"/><g clip-path="url(#434938320f)"><path fill="#082c59" d="M 102.414062 34.820312 C 102.332031 33.753906 102.179688 32.628906 101.878906 31.460938 C 101.578125 30.300781 101.125 29.082031 100.347656 27.9375 C 99.960938 27.363281 99.488281 26.816406 98.929688 26.335938 C 98.375 25.851562 97.726562 25.441406 97.027344 25.128906 C 96.328125 24.820312 95.578125 24.605469 94.820312 24.484375 C 94.058594 24.363281 93.289062 24.335938 92.523438 24.359375 C 90.988281 24.421875 89.46875 24.722656 87.976562 25.152344 C 86.484375 25.578125 85.015625 26.148438 83.554688 26.796875 C 82.824219 27.121094 82.097656 27.46875 81.371094 27.835938 C 80.628906 28.210938 79.964844 28.5625 79.289062 28.863281 C 77.914062 29.484375 76.472656 29.996094 74.980469 30.335938 C 73.484375 30.675781 71.933594 30.847656 70.359375 30.820312 C 68.785156 30.789062 67.183594 30.582031 65.574219 30.199219 C 63.964844 29.816406 62.347656 29.261719 60.726562 28.59375 C 59.105469 27.921875 57.472656 27.144531 55.824219 26.300781 C 54.171875 25.457031 52.5 24.546875 50.78125 23.628906 C 49.0625 22.710938 47.289062 21.78125 45.433594 20.917969 C 43.574219 20.050781 41.632812 19.234375 39.574219 18.570312 C 37.519531 17.90625 35.347656 17.390625 33.085938 17.167969 C 30.832031 16.941406 28.5 16.996094 26.210938 17.378906 C 25.066406 17.566406 23.933594 17.828125 22.824219 18.164062 C 22.546875 18.25 22.269531 18.332031 21.996094 18.425781 L 21.789062 18.496094 C 21.804688 18.488281 21.652344 18.542969 21.636719 18.550781 L 21.542969 18.582031 L 21.175781 18.71875 C 21.050781 18.765625 20.9375 18.804688 20.800781 18.855469 L 19.925781 19.222656 C 19.78125 19.285156 19.648438 19.347656 19.511719 19.410156 C 17.335938 20.417969 15.28125 21.828125 13.542969 23.566406 C 11.796875 25.300781 10.378906 27.347656 9.308594 29.507812 C 8.769531 30.589844 8.316406 31.699219 7.929688 32.828125 C 7.550781 33.953125 7.246094 35.097656 7 36.242188 C 6.507812 38.535156 6.238281 40.84375 6.15625 43.136719 C 6.113281 44.28125 6.113281 45.425781 6.144531 46.5625 C 6.179688 47.699219 6.25 48.832031 6.351562 49.957031 C 6.761719 54.460938 7.640625 58.859375 8.832031 63.128906 C 10.015625 67.402344 11.535156 71.539062 13.273438 75.53125 C 13.488281 76.03125 13.714844 76.527344 13.9375 77.023438 C 14.15625 77.503906 14.375 77.988281 14.59375 78.46875 C 15.039062 79.429688 15.480469 80.386719 15.917969 81.34375 C 16.816406 83.246094 17.707031 85.136719 18.59375 87.015625 C 19.480469 88.890625 20.363281 90.75 21.238281 92.597656 C 22.101562 94.445312 22.972656 96.265625 23.78125 98.070312 C 24.1875 98.972656 24.574219 99.871094 24.953125 100.765625 C 25.320312 101.660156 25.675781 102.550781 26.007812 103.445312 C 26.667969 105.226562 27.238281 107.011719 27.726562 108.8125 C 28.214844 110.613281 28.613281 112.4375 28.976562 114.257812 C 29.0625 114.714844 29.152344 115.171875 29.238281 115.625 C 29.304688 115.957031 29.320312 116.070312 29.398438 116.398438 L 29.503906 116.832031 L 29.613281 117.230469 C 29.921875 118.296875 30.363281 119.339844 30.945312 120.316406 C 31.234375 120.800781 31.5625 121.273438 31.925781 121.71875 C 32.292969 122.164062 32.695312 122.585938 33.136719 122.96875 C 34.015625 123.742188 35.0625 124.367188 36.203125 124.746094 C 36.769531 124.933594 37.359375 125.066406 37.953125 125.128906 C 38.546875 125.195312 39.140625 125.1875 39.71875 125.128906 C 40.882812 125.011719 41.96875 124.644531 42.925781 124.15625 C 43.882812 123.664062 44.722656 123.058594 45.460938 122.390625 C 46.195312 121.722656 46.835938 121.003906 47.40625 120.265625 C 48.539062 118.777344 49.398438 117.214844 50.101562 115.652344 C 50.796875 114.089844 51.34375 112.527344 51.789062 110.988281 C 52.234375 109.449219 52.589844 107.933594 52.863281 106.449219 C 52.992188 105.71875 53.121094 105 53.246094 104.289062 C 53.308594 103.941406 53.371094 103.601562 53.433594 103.261719 C 53.5 102.917969 53.570312 102.578125 53.632812 102.242188 C 53.90625 100.898438 54.207031 99.601562 54.527344 98.359375 C 55.167969 95.871094 55.933594 93.589844 56.855469 91.597656 C 57.773438 89.613281 58.882812 87.917969 60.1875 86.71875 C 60.835938 86.117188 61.539062 85.652344 62.25 85.324219 C 62.964844 84.988281 63.6875 84.804688 64.378906 84.710938 C 65.074219 84.621094 65.730469 84.628906 66.332031 84.679688 C 66.9375 84.734375 67.484375 84.828125 67.96875 84.9375 C 68.941406 85.15625 69.671875 85.40625 70.164062 85.574219 C 70.65625 85.746094 70.90625 85.847656 70.90625 85.847656 C 70.90625 85.847656 70.667969 85.71875 70.199219 85.492188 C 69.726562 85.265625 69.027344 84.929688 68.0625 84.601562 C 67.101562 84.28125 65.855469 83.941406 64.324219 83.980469 C 63.5625 84.007812 62.734375 84.128906 61.894531 84.429688 C 61.054688 84.726562 60.207031 85.183594 59.414062 85.789062 C 58.625 86.394531 57.875 87.132812 57.195312 87.984375 C 56.855469 88.40625 56.527344 88.855469 56.214844 89.324219 C 55.898438 89.792969 55.59375 90.285156 55.304688 90.792969 C 54.722656 91.8125 54.1875 92.902344 53.695312 94.058594 C 53.195312 95.210938 52.738281 96.425781 52.304688 97.6875 C 51.871094 98.953125 51.472656 100.269531 51.097656 101.632812 C 51.003906 101.976562 50.914062 102.320312 50.820312 102.667969 C 50.730469 103.015625 50.640625 103.367188 50.546875 103.722656 C 50.378906 104.410156 50.207031 105.109375 50.03125 105.816406 C 49.667969 107.203125 49.253906 108.605469 48.75 110.003906 C 48.253906 111.40625 47.667969 112.796875 46.96875 114.140625 C 46.261719 115.472656 45.457031 116.773438 44.488281 117.90625 C 44.003906 118.46875 43.480469 118.988281 42.925781 119.441406 C 42.375 119.890625 41.78125 120.261719 41.175781 120.53125 C 39.964844 121.0625 38.722656 121.152344 37.625 120.710938 C 36.519531 120.28125 35.53125 119.328125 34.867188 118.066406 C 34.53125 117.4375 34.273438 116.738281 34.085938 116 L 34.019531 115.722656 L 33.96875 115.46875 C 33.9375 115.335938 33.886719 114.984375 33.863281 114.855469 C 33.792969 114.382812 33.71875 113.90625 33.644531 113.425781 C 33.339844 111.515625 32.988281 109.570312 32.535156 107.609375 C 32.3125 106.628906 32.054688 105.644531 31.78125 104.660156 C 31.5 103.675781 31.191406 102.695312 30.863281 101.722656 C 30.53125 100.746094 30.179688 99.78125 29.8125 98.816406 C 29.441406 97.859375 29.0625 96.902344 28.667969 95.957031 C 27.097656 92.164062 25.378906 88.445312 23.6875 84.660156 C 22.847656 82.769531 22 80.867188 21.144531 78.957031 C 20.722656 78.003906 20.296875 77.046875 19.871094 76.089844 C 19.65625 75.605469 19.445312 75.125 19.230469 74.644531 C 19.027344 74.175781 18.820312 73.707031 18.625 73.230469 C 17.027344 69.449219 15.667969 65.53125 14.578125 61.542969 C 13.5 57.554688 12.691406 53.484375 12.328125 49.417969 C 12.238281 48.40625 12.171875 47.390625 12.140625 46.378906 C 12.109375 45.367188 12.109375 44.359375 12.144531 43.359375 C 12.214844 41.359375 12.429688 39.386719 12.824219 37.488281 C 13.21875 35.59375 13.800781 33.773438 14.601562 32.109375 C 15.402344 30.445312 16.425781 28.941406 17.664062 27.675781 C 18.902344 26.40625 20.359375 25.382812 21.972656 24.597656 C 22.070312 24.550781 22.171875 24.496094 22.269531 24.453125 L 22.554688 24.328125 L 22.835938 24.199219 C 22.941406 24.15625 23.074219 24.105469 23.191406 24.058594 L 23.558594 23.914062 L 23.648438 23.878906 C 23.65625 23.878906 23.65625 23.875 23.660156 23.875 C 23.664062 23.875 23.667969 23.871094 23.679688 23.871094 L 23.84375 23.8125 C 24.0625 23.730469 24.28125 23.660156 24.5 23.585938 C 25.382812 23.300781 26.269531 23.074219 27.167969 22.90625 C 30.757812 22.226562 34.433594 22.605469 38.011719 23.65625 C 39.804688 24.179688 41.574219 24.855469 43.320312 25.613281 C 45.070312 26.375 46.800781 27.203125 48.535156 28.046875 C 50.265625 28.890625 51.996094 29.75 53.75 30.566406 C 55.503906 31.382812 57.28125 32.15625 59.101562 32.8125 C 60.925781 33.472656 62.789062 34.019531 64.6875 34.382812 C 65.234375 34.488281 65.789062 34.574219 66.339844 34.644531 C 65.214844 34.996094 64.039062 35.328125 62.84375 35.648438 C 62.214844 35.8125 61.582031 35.964844 60.945312 36.125 C 60.304688 36.277344 59.664062 36.425781 59.019531 36.570312 C 57.730469 36.851562 56.433594 37.121094 55.152344 37.355469 C 53.875 37.597656 52.609375 37.804688 51.382812 37.996094 C 50.15625 38.183594 48.964844 38.351562 47.835938 38.496094 C 46.707031 38.640625 45.632812 38.761719 44.644531 38.867188 C 42.664062 39.074219 41.007812 39.199219 39.847656 39.277344 C 38.6875 39.351562 38.023438 39.375 38.023438 39.375 C 38.023438 39.375 38.6875 39.402344 39.851562 39.410156 C 41.015625 39.421875 42.679688 39.421875 44.675781 39.363281 C 45.675781 39.332031 46.757812 39.292969 47.902344 39.230469 C 49.046875 39.171875 50.25 39.09375 51.5 38.996094 C 52.746094 38.894531 54.035156 38.78125 55.339844 38.636719 C 56.648438 38.496094 57.976562 38.324219 59.300781 38.136719 C 59.964844 38.039062 60.628906 37.933594 61.285156 37.832031 C 61.945312 37.714844 62.601562 37.609375 63.25 37.488281 C 64.550781 37.246094 65.828125 36.984375 67.058594 36.699219 C 67.671875 36.554688 68.28125 36.417969 68.867188 36.261719 C 69.457031 36.105469 70.039062 35.964844 70.59375 35.796875 C 71.714844 35.484375 72.765625 35.148438 73.734375 34.828125 C 74.21875 34.660156 74.679688 34.496094 75.117188 34.34375 C 75.554688 34.175781 75.964844 34.015625 76.355469 33.867188 C 76.445312 33.832031 76.535156 33.796875 76.621094 33.761719 C 78.109375 33.289062 79.515625 32.691406 80.824219 32 C 81.59375 31.59375 82.316406 31.152344 82.957031 30.777344 C 83.621094 30.394531 84.28125 30.027344 84.9375 29.683594 C 86.257812 28.996094 87.574219 28.402344 88.871094 27.925781 C 90.171875 27.453125 91.460938 27.113281 92.703125 26.976562 C 93.941406 26.839844 95.125 26.921875 96.152344 27.289062 C 97.179688 27.648438 98.042969 28.300781 98.707031 29.140625 C 99.375 29.976562 99.851562 30.964844 100.207031 31.96875 C 100.558594 32.972656 100.789062 34 100.949219 34.992188 C 101.109375 35.988281 101.207031 36.957031 101.261719 37.878906 C 101.371094 39.730469 101.335938 41.398438 101.273438 42.851562 C 101.203125 44.304688 101.09375 45.539062 100.996094 46.542969 C 100.894531 47.542969 100.804688 48.3125 100.738281 48.828125 C 100.675781 49.347656 100.640625 49.613281 100.640625 49.613281 C 100.640625 49.613281 100.703125 49.351562 100.832031 48.847656 C 100.953125 48.339844 101.136719 47.585938 101.339844 46.59375 C 101.550781 45.605469 101.789062 44.378906 102 42.921875 C 102.214844 41.464844 102.410156 39.777344 102.472656 37.863281 C 102.5 36.90625 102.496094 35.890625 102.414062 34.820312 " fill-opacity="1" fill-rule="nonzero"/></g><g clip-path="url(#aa7b5b264f)"><path fill="#4d75a6" d="M 294.226562 27.171875 C 278.121094 28.214844 277.273438 29.0625 276.230469 45.195312 C 275.1875 29.0625 274.34375 28.214844 258.234375 27.171875 C 274.34375 26.125 275.1875 25.28125 276.230469 9.148438 C 277.273438 25.28125 278.121094 26.125 294.226562 27.171875 " fill-opacity="1" fill-rule="nonzero"/></g><path fill="#4d75a6" d="M 272.742188 47.832031 C 267.074219 48.199219 266.773438 48.496094 266.402344 54.179688 C 266.039062 48.496094 265.738281 48.199219 260.066406 47.832031 C 265.738281 47.460938 266.039062 47.164062 266.402344 41.480469 C 266.773438 47.164062 267.074219 47.460938 272.742188 47.832031 " fill-opacity="1" fill-rule="nonzero"/><path fill="#4d75a6" d="M 242.964844 32.191406 C 238.480469 32.484375 238.242188 32.71875 237.953125 37.214844 C 237.660156 32.71875 237.425781 32.484375 232.9375 32.191406 C 237.425781 31.902344 237.660156 31.667969 237.953125 27.171875 C 238.242188 31.667969 238.480469 31.902344 242.964844 32.191406 " fill-opacity="1" fill-rule="nonzero"/><g fill="#082c59" fill-opacity="1"><g transform="translate(107.752419, 103.227875)"><g><path d="M 22.199219 -22.957031 C 21.78125 -22.664062 20.898438 -21.863281 19.472656 -21.65625 C 19.890625 -27.78125 17.921875 -31.683594 15.191406 -31.097656 C 11.792969 -30.34375 11.078125 -25.683594 12.757812 -22.914062 C 13.933594 -20.941406 16.578125 -20.523438 18.550781 -20.730469 C 18.382812 -19.347656 18.085938 -17.878906 17.667969 -16.324219 C 15.613281 -8.769531 11.835938 -0.839844 8.519531 -0.921875 C 5.203125 -1.007812 4.15625 -7.261719 4.15625 -12.171875 C 4.15625 -17.121094 7.09375 -32.984375 12.003906 -32.984375 C 13.511719 -32.984375 13.976562 -32.105469 14.351562 -31.8125 C 14.730469 -31.515625 15.191406 -31.558594 15.023438 -31.894531 C 14.605469 -32.777344 13.722656 -33.65625 11.875 -33.65625 C 4.574219 -33.65625 0.210938 -20.816406 0.460938 -12.128906 C 0.714844 -2.894531 4.910156 -0.167969 8.433594 -0.0820312 C 12.546875 0 16.199219 -7.175781 18.550781 -16.285156 C 18.96875 -17.878906 19.222656 -19.429688 19.390625 -20.859375 C 19.683594 -20.898438 19.976562 -20.984375 20.1875 -21.066406 C 21.402344 -21.527344 22.03125 -21.78125 22.535156 -22.199219 C 23.039062 -22.621094 22.703125 -23.292969 22.199219 -22.957031 Z M 14.144531 -24.761719 C 13.050781 -26.691406 13.640625 -30.089844 15.277344 -30.46875 C 17.207031 -30.929688 19.09375 -27.488281 18.632812 -21.613281 C 16.785156 -21.695312 15.316406 -22.746094 14.144531 -24.761719 Z M 14.144531 -24.761719 "/></g></g></g><g fill="#082c59" fill-opacity="1"><g transform="translate(126.301847, 103.227875)"><g><path d="M 12.171875 0.378906 C 13.429688 0.378906 14.6875 0 15.316406 -0.503906 C 17.5 -2.222656 18.507812 -4.742188 19.054688 -5.75 C 19.390625 -6.378906 20.5625 -8.9375 20.773438 -9.863281 C 20.816406 -10.113281 20.730469 -10.199219 20.480469 -10.238281 C 20.1875 -10.367188 20.058594 -10.113281 19.890625 -9.777344 C 19.429688 -8.6875 19.222656 -8.183594 18.046875 -5.960938 C 17.542969 -5.121094 16.242188 -2.6875 14.5625 -1.804688 C 13.933594 -1.46875 13.011719 -1.636719 12.632812 -2.308594 C 12.128906 -3.148438 12.378906 -7.429688 12.632812 -8.8125 C 12.882812 -10.199219 13.890625 -11.582031 13.890625 -11.582031 C 16.660156 -16.324219 16.285156 -15.277344 18.550781 -20.5625 C 19.261719 -22.746094 20.480469 -27.109375 20.898438 -29.167969 C 21.320312 -31.265625 20.523438 -32.566406 18.800781 -32.230469 C 17.332031 -31.9375 16.410156 -31.054688 15.570312 -29.964844 C 13.679688 -27.65625 12.800781 -24.84375 11.917969 -22.410156 C 11.414062 -20.984375 10.785156 -18.589844 10.449219 -16.953125 L 10.28125 -15.90625 C 9.316406 -17.417969 7.007812 -16.953125 6.042969 -16.410156 C 3.105469 -14.8125 2.433594 -12.84375 1.554688 -11.078125 C 0.417969 -8.855469 -0.417969 -6.589844 -0.417969 -4.53125 C -0.417969 -2.390625 -0.292969 -1.847656 0.964844 -0.839844 C 1.679688 -0.292969 3.523438 -0.292969 4.574219 -1.132812 C 5.875 -2.140625 7.554688 -4.195312 8.351562 -5.496094 C 8.476562 -5.664062 8.644531 -5.664062 8.769531 -5.582031 L 9.105469 -2.433594 C 9.484375 -0.839844 10.910156 0.378906 12.171875 0.378906 Z M 13.09375 -12.882812 C 12.421875 -13.21875 13.640625 -19.390625 14.4375 -22.914062 C 15.109375 -26.019531 16.492188 -30.511719 18.632812 -30.972656 C 19.890625 -31.265625 20.144531 -30.34375 19.722656 -28.496094 C 18.046875 -20.816406 16.871094 -19.136719 14.519531 -14.5625 C 14.226562 -14.058594 13.847656 -13.511719 13.511719 -12.96875 C 13.34375 -12.757812 13.175781 -12.757812 13.09375 -12.882812 Z M 3.191406 -2.433594 C 2.433594 -3.023438 2.601562 -4.28125 2.894531 -5.960938 C 3.316406 -8.476562 4.070312 -10.828125 5.203125 -13.21875 C 5.917969 -14.6875 8.265625 -17.164062 9.945312 -14.8125 L 9.527344 -9.527344 C 9.527344 -8.769531 6.671875 -4.324219 5.496094 -3.355469 C 4.699219 -2.726562 3.777344 -1.847656 3.191406 -2.433594 Z M 3.191406 -2.433594 "/></g></g></g><g fill="#082c59" fill-opacity="1"><g transform="translate(145.522746, 103.227875)"><g><path d="M 5.121094 -0.125 C 6.671875 -0.839844 7.636719 -3.105469 8.855469 -5.539062 C 9.148438 -6.128906 9.902344 -8.308594 10.367188 -8.5625 C 11.582031 -8.8125 13.472656 -9.652344 15.277344 -11.667969 C 15.316406 -11.75 15.445312 -11.917969 15.402344 -12.042969 C 15.402344 -12.171875 15.484375 -12.296875 15.316406 -12.339844 C 15.191406 -12.507812 14.941406 -12.507812 14.773438 -12.339844 C 14.5625 -12.171875 14.394531 -11.917969 13.976562 -11.582031 C 12.925781 -10.703125 12.003906 -10.070312 10.742188 -9.945312 C 10.660156 -10.03125 10.910156 -11.121094 10.910156 -12.171875 C 10.910156 -12.925781 10.785156 -13.597656 10.40625 -14.226562 C 10.28125 -14.4375 10.113281 -14.6875 9.902344 -14.8125 C 9.570312 -14.980469 9.402344 -15.277344 9.191406 -15.570312 C 8.855469 -16.117188 8.5625 -16.367188 7.933594 -16.578125 C 7.679688 -16.660156 7.007812 -16.660156 6.671875 -16.617188 C 5.539062 -16.492188 4.40625 -15.949219 3.609375 -15.109375 C 1.300781 -12.757812 0.671875 -10.238281 0.167969 -7.890625 C -0.0429688 -6.503906 -0.0820312 -3.820312 0.378906 -2.351562 C 1.007812 -0.378906 3.230469 0.796875 5.121094 -0.125 Z M 4.574219 -1.300781 C 3.734375 -1.175781 3.230469 -3.230469 3.191406 -3.820312 C 3.105469 -4.953125 3.148438 -8.058594 3.566406 -10.199219 C 4.28125 -13.722656 5.625 -15.445312 7.34375 -15.695312 C 7.933594 -15.78125 8.183594 -14.855469 8.183594 -14.855469 C 6.796875 -14.144531 6.589844 -12.632812 6.714844 -11.539062 C 6.796875 -10.492188 7.554688 -9.273438 8.769531 -8.8125 C 9.105469 -8.6875 8.980469 -8.058594 8.855469 -7.765625 C 8.101562 -5.832031 7.386719 -4.492188 6.628906 -3.191406 C 6.210938 -2.433594 5.371094 -1.425781 4.574219 -1.300781 Z M 9.609375 -10.199219 C 9.273438 -10.15625 8.730469 -10.617188 8.5625 -10.871094 C 8.058594 -11.625 7.890625 -12.042969 8.101562 -13.304688 C 8.140625 -13.511719 8.394531 -13.976562 8.898438 -14.058594 C 9.316406 -14.144531 9.777344 -13.765625 9.863281 -13.21875 C 9.945312 -12.84375 9.988281 -12.546875 9.988281 -12.042969 C 9.988281 -11.792969 9.863281 -10.238281 9.609375 -10.199219 Z M 9.609375 -10.199219 "/></g></g><g transform="translate(158.406626, 103.227875)"><g><path d="M 12.96875 0.210938 C 14.015625 0.417969 15.613281 -0.796875 16.285156 -1.59375 C 17.039062 -2.476562 18.085938 -4.828125 18.507812 -5.832031 C 18.886719 -6.714844 19.472656 -8.898438 19.851562 -10.199219 C 19.890625 -10.28125 19.808594 -10.367188 19.808594 -10.449219 C 19.808594 -10.535156 19.808594 -10.617188 19.722656 -10.703125 C 19.554688 -10.871094 19.304688 -10.785156 19.222656 -10.617188 C 18.71875 -9.402344 17.753906 -6.335938 17.164062 -5.289062 C 16.617188 -4.324219 15.066406 -1.21875 13.722656 -1.425781 C 13.09375 -1.511719 12.882812 -2.601562 13.050781 -4.699219 C 13.21875 -6.378906 13.765625 -8.5625 13.976562 -10.15625 C 14.101562 -11.457031 14.3125 -13.808594 13.933594 -14.5625 C 13.511719 -15.402344 12.589844 -16.285156 11.667969 -16.03125 C 9.777344 -15.484375 9.234375 -14.898438 7.890625 -13.304688 C 7.050781 -12.464844 6.421875 -11.164062 5.496094 -10.40625 C 5.035156 -9.945312 4.785156 -10.113281 4.785156 -10.996094 C 4.785156 -12.675781 4.867188 -13.808594 4.867188 -15.695312 C 4.867188 -16.074219 4.617188 -16.746094 3.398438 -16.828125 C 2.980469 -16.871094 2.308594 -16.703125 2.140625 -15.78125 C 1.679688 -13.472656 1.46875 -11.207031 0.921875 -6.714844 C 0.753906 -5.203125 0.335938 -3.609375 0.125 -1.847656 C 0.0429688 -0.921875 -0.125 -0.585938 0.417969 0.0820312 C 0.839844 0.628906 2.054688 0.714844 2.390625 0.125 C 2.726562 -0.335938 2.894531 -0.796875 3.023438 -1.386719 C 3.105469 -1.71875 3.566406 -3.691406 3.691406 -3.945312 C 3.988281 -4.742188 4.363281 -5.960938 4.785156 -6.714844 C 5.539062 -7.972656 6.925781 -10.535156 7.847656 -11.625 C 8.433594 -12.378906 9.441406 -13.472656 10.40625 -14.226562 C 10.953125 -14.480469 11.582031 -14.269531 11.582031 -13.511719 C 11.667969 -13.136719 11.164062 -10.828125 10.953125 -10.113281 C 9.902344 -6.210938 9.777344 -4.492188 10.199219 -2.433594 C 10.574219 -0.546875 11.835938 0 12.96875 0.210938 Z M 12.96875 0.210938 "/></g></g><g transform="translate(176.536386, 103.227875)"><g><path d="M 12.421875 -10.03125 C 12.378906 -10.113281 12.296875 -10.199219 12.210938 -10.199219 C 12.128906 -10.238281 11.960938 -10.199219 11.960938 -10.15625 C 11.539062 -9.527344 11.164062 -8.769531 10.703125 -7.804688 C 9.441406 -5.160156 6.628906 -1.175781 5.328125 -0.753906 C 4.449219 -0.503906 3.820312 -0.964844 3.609375 -1.847656 C 3.0625 -4.238281 4.027344 -9.105469 4.492188 -11.875 C 4.492188 -11.792969 5.035156 -15.695312 5.289062 -17.921875 C 8.058594 -17.710938 11.078125 -18.339844 11.539062 -18.71875 C 12.042969 -19.136719 11.835938 -19.683594 11.289062 -19.515625 C 10.742188 -19.347656 8.183594 -18.925781 5.457031 -19.304688 L 5.625 -21.277344 L 5.75 -22.453125 C 5.960938 -24.257812 6.796875 -28.371094 6.796875 -29.542969 C 6.796875 -29.964844 6.335938 -30.214844 6.167969 -30.300781 C 5.707031 -30.511719 5.035156 -30.34375 4.785156 -29.964844 C 3.945312 -28.832031 3.191406 -26.3125 2.894531 -24.046875 L 2.644531 -22.664062 C 2.601562 -22.367188 2.433594 -21.445312 2.265625 -20.3125 C 0.839844 -21.066406 0.125 -22.117188 -0.167969 -22.789062 C -0.417969 -23.460938 -0.460938 -24.300781 -0.292969 -24.71875 C -0.0820312 -25.222656 -0.671875 -25.265625 -1.050781 -25.265625 C -1.929688 -25.265625 -2.644531 -24.132812 -2.390625 -22.621094 C -2.097656 -21.027344 -0.417969 -19.515625 2.015625 -18.632812 L 1.46875 -15.191406 C 0.796875 -11.078125 -0.378906 -5.625 0.714844 -2.644531 C 1.71875 0.210938 4.574219 1.21875 6.546875 -0.292969 C 8.308594 -1.636719 10.703125 -5.539062 12.171875 -9.066406 C 12.339844 -9.484375 12.464844 -9.695312 12.421875 -10.03125 Z M 12.421875 -10.03125 "/></g></g><g transform="translate(186.944212, 103.227875)"><g><path d="M 5.121094 -0.125 C 6.671875 -0.839844 7.636719 -3.105469 8.855469 -5.539062 C 9.148438 -6.128906 9.902344 -8.308594 10.367188 -8.5625 C 11.582031 -8.8125 13.472656 -9.652344 15.277344 -11.667969 C 15.316406 -11.75 15.445312 -11.917969 15.402344 -12.042969 C 15.402344 -12.171875 15.484375 -12.296875 15.316406 -12.339844 C 15.191406 -12.507812 14.941406 -12.507812 14.773438 -12.339844 C 14.5625 -12.171875 14.394531 -11.917969 13.976562 -11.582031 C 12.925781 -10.703125 12.003906 -10.070312 10.742188 -9.945312 C 10.660156 -10.03125 10.910156 -11.121094 10.910156 -12.171875 C 10.910156 -12.925781 10.785156 -13.597656 10.40625 -14.226562 C 10.28125 -14.4375 10.113281 -14.6875 9.902344 -14.8125 C 9.570312 -14.980469 9.402344 -15.277344 9.191406 -15.570312 C 8.855469 -16.117188 8.5625 -16.367188 7.933594 -16.578125 C 7.679688 -16.660156 7.007812 -16.660156 6.671875 -16.617188 C 5.539062 -16.492188 4.40625 -15.949219 3.609375 -15.109375 C 1.300781 -12.757812 0.671875 -10.238281 0.167969 -7.890625 C -0.0429688 -6.503906 -0.0820312 -3.820312 0.378906 -2.351562 C 1.007812 -0.378906 3.230469 0.796875 5.121094 -0.125 Z M 4.574219 -1.300781 C 3.734375 -1.175781 3.230469 -3.230469 3.191406 -3.820312 C 3.105469 -4.953125 3.148438 -8.058594 3.566406 -10.199219 C 4.28125 -13.722656 5.625 -15.445312 7.34375 -15.695312 C 7.933594 -15.78125 8.183594 -14.855469 8.183594 -14.855469 C 6.796875 -14.144531 6.589844 -12.632812 6.714844 -11.539062 C 6.796875 -10.492188 7.554688 -9.273438 8.769531 -8.8125 C 9.105469 -8.6875 8.980469 -8.058594 8.855469 -7.765625 C 8.101562 -5.832031 7.386719 -4.492188 6.628906 -3.191406 C 6.210938 -2.433594 5.371094 -1.425781 4.574219 -1.300781 Z M 9.609375 -10.199219 C 9.273438 -10.15625 8.730469 -10.617188 8.5625 -10.871094 C 8.058594 -11.625 7.890625 -12.042969 8.101562 -13.304688 C 8.140625 -13.511719 8.394531 -13.976562 8.898438 -14.058594 C 9.316406 -14.144531 9.777344 -13.765625 9.863281 -13.21875 C 9.945312 -12.84375 9.988281 -12.546875 9.988281 -12.042969 C 9.988281 -11.792969 9.863281 -10.238281 9.609375 -10.199219 Z M 9.609375 -10.199219 "/></g></g><g transform="translate(199.828092, 103.227875)"><g><path d="M 4.617188 0.628906 C 5.457031 0.628906 7.007812 0.628906 8.101562 -0.671875 C 10.574219 -3.652344 11.332031 -6.925781 12.84375 -10.449219 C 12.96875 -10.828125 13.136719 -11.164062 12.84375 -11.246094 C 12.507812 -11.375 12.210938 -11.246094 12.042969 -10.828125 C 11.375 -8.898438 9.988281 -5.875 9.316406 -4.785156 C 8.476562 -3.398438 7.636719 -1.804688 6.210938 -1.425781 C 5.75 -1.300781 4.492188 -1.59375 3.945312 -2.769531 C 3.191406 -4.40625 3.355469 -7.847656 3.484375 -10.238281 C 3.523438 -11.039062 3.691406 -12.042969 4.15625 -12.632812 C 5.121094 -13.847656 5.792969 -14.941406 6.964844 -16.871094 C 9.820312 -21.320312 11.582031 -25.304688 11.5 -30.382812 C 11.457031 -32.148438 10.703125 -33.574219 9.402344 -33.53125 C 8.476562 -33.488281 7.554688 -33.113281 6.882812 -32.441406 C 3.820312 -29.417969 1.175781 -19.976562 0.585938 -14.058594 C 0.25 -10.910156 -0.0820312 -7.050781 0.210938 -4.324219 C 0.417969 -2.222656 1.71875 0.628906 4.617188 0.628906 Z M 4.15625 -14.605469 C 3.902344 -14.6875 3.902344 -15.90625 4.324219 -17.960938 C 5.121094 -21.824219 6.378906 -27.277344 7.429688 -29.839844 C 7.847656 -30.804688 8.769531 -32.148438 9.652344 -32.230469 C 10.03125 -32.273438 10.238281 -31.9375 10.40625 -31.097656 C 10.785156 -29.292969 10.070312 -24.003906 8.351562 -21.027344 C 8.226562 -20.859375 6 -17.121094 5.289062 -15.949219 C 4.953125 -15.445312 4.363281 -14.519531 4.15625 -14.605469 Z M 4.15625 -14.605469 "/></g></g><g transform="translate(210.739522, 103.227875)"><g><path d="M 5.121094 -0.125 C 6.671875 -0.839844 7.636719 -3.105469 8.855469 -5.539062 C 9.148438 -6.128906 9.902344 -8.308594 10.367188 -8.5625 C 11.582031 -8.8125 13.472656 -9.652344 15.277344 -11.667969 C 15.316406 -11.75 15.445312 -11.917969 15.402344 -12.042969 C 15.402344 -12.171875 15.484375 -12.296875 15.316406 -12.339844 C 15.191406 -12.507812 14.941406 -12.507812 14.773438 -12.339844 C 14.5625 -12.171875 14.394531 -11.917969 13.976562 -11.582031 C 12.925781 -10.703125 12.003906 -10.070312 10.742188 -9.945312 C 10.660156 -10.03125 10.910156 -11.121094 10.910156 -12.171875 C 10.910156 -12.925781 10.785156 -13.597656 10.40625 -14.226562 C 10.28125 -14.4375 10.113281 -14.6875 9.902344 -14.8125 C 9.570312 -14.980469 9.402344 -15.277344 9.191406 -15.570312 C 8.855469 -16.117188 8.5625 -16.367188 7.933594 -16.578125 C 7.679688 -16.660156 7.007812 -16.660156 6.671875 -16.617188 C 5.539062 -16.492188 4.40625 -15.949219 3.609375 -15.109375 C 1.300781 -12.757812 0.671875 -10.238281 0.167969 -7.890625 C -0.0429688 -6.503906 -0.0820312 -3.820312 0.378906 -2.351562 C 1.007812 -0.378906 3.230469 0.796875 5.121094 -0.125 Z M 4.574219 -1.300781 C 3.734375 -1.175781 3.230469 -3.230469 3.191406 -3.820312 C 3.105469 -4.953125 3.148438 -8.058594 3.566406 -10.199219 C 4.28125 -13.722656 5.625 -15.445312 7.34375 -15.695312 C 7.933594 -15.78125 8.183594 -14.855469 8.183594 -14.855469 C 6.796875 -14.144531 6.589844 -12.632812 6.714844 -11.539062 C 6.796875 -10.492188 7.554688 -9.273438 8.769531 -8.8125 C 9.105469 -8.6875 8.980469 -8.058594 8.855469 -7.765625 C 8.101562 -5.832031 7.386719 -4.492188 6.628906 -3.191406 C 6.210938 -2.433594 5.371094 -1.425781 4.574219 -1.300781 Z M 9.609375 -10.199219 C 9.273438 -10.15625 8.730469 -10.617188 8.5625 -10.871094 C 8.058594 -11.625 7.890625 -12.042969 8.101562 -13.304688 C 8.140625 -13.511719 8.394531 -13.976562 8.898438 -14.058594 C 9.316406 -14.144531 9.777344 -13.765625 9.863281 -13.21875 C 9.945312 -12.84375 9.988281 -12.546875 9.988281 -12.042969 C 9.988281 -11.792969 9.863281 -10.238281 9.609375 -10.199219 Z M 9.609375 -10.199219 "/></g></g><g transform="translate(223.623402, 103.227875)"><g><path d="M 3.316406 17.375 C 4.238281 17.792969 5.457031 17.625 6.628906 16.785156 C 8.183594 15.695312 9.902344 12.632812 10.742188 8.351562 C 11.289062 5.625 12.421875 -1.050781 12.632812 -1.636719 C 13.679688 -2.894531 15.484375 -4.53125 16.660156 -7.175781 C 16.996094 -7.890625 17.457031 -8.9375 17.542969 -9.273438 C 17.667969 -9.609375 17.625 -10.070312 17.289062 -10.15625 C 17.082031 -10.238281 16.785156 -9.695312 16.746094 -9.527344 C 16.117188 -8.058594 14.605469 -4.449219 12.757812 -3.523438 C 12.339844 -3.316406 12.339844 -3.484375 12.378906 -3.945312 C 12.589844 -7.511719 12.546875 -7.890625 12.589844 -9.191406 C 12.632812 -10.238281 12.714844 -11.5 12.507812 -12.925781 C 12.421875 -13.597656 11.582031 -13.511719 10.910156 -12.84375 C 10.28125 -12.296875 10.238281 -10.703125 9.945312 -9.105469 C 8.730469 -5.160156 6.296875 -2.6875 5.203125 -1.847656 C 4.660156 -1.425781 3.609375 -1.554688 3.441406 -2.433594 C 2.8125 -5.414062 3.230469 -10.492188 5.457031 -13.722656 C 6.714844 -15.527344 8.101562 -16.199219 9.402344 -15.78125 C 10.28125 -15.613281 8.730469 -12.96875 9.777344 -12.96875 C 9.945312 -12.96875 10.070312 -12.96875 10.324219 -13.21875 C 10.742188 -13.933594 10.828125 -14.394531 10.828125 -15.191406 C 10.828125 -16.074219 10.324219 -16.828125 9.484375 -16.914062 C 7.21875 -17.25 4.574219 -15.570312 3.148438 -13.597656 C 0.167969 -9.527344 -0.585938 -4.363281 0.628906 -1.257812 C 1.257812 -0.0820312 2.726562 0.753906 4.070312 0.503906 C 7.386719 -0.125 8.730469 -5.625 9.402344 -5.160156 C 9.652344 -4.992188 9.191406 -3.691406 9.191406 -2.558594 C 9.191406 -2.097656 9.105469 -0.839844 8.855469 -0.0820312 C 8.226562 1.132812 6.757812 2.8125 5.582031 4.53125 C 2.9375 8.394531 0.210938 15.949219 3.316406 17.375 Z M 3.523438 16.285156 C 2.054688 15.445312 3.398438 10.238281 5.078125 7.21875 C 5.246094 6.925781 8.644531 1.34375 8.9375 1.511719 C 9.191406 1.554688 9.191406 2.097656 8.769531 4.15625 C 8.015625 7.972656 7.007812 11.707031 6 14.4375 C 5.457031 15.90625 4.660156 16.914062 3.523438 16.285156 Z M 3.523438 16.285156 "/></g></g><g transform="translate(239.528909, 103.227875)"><g><path d="M 5.203125 -19.722656 C 6.503906 -21.152344 6.925781 -21.488281 8.9375 -23.835938 C 9.484375 -24.464844 8.476562 -25.347656 7.847656 -25.515625 C 7.386719 -25.601562 6.296875 -24.632812 5.707031 -23.878906 C 3.859375 -21.488281 3.609375 -20.269531 3.859375 -19.765625 C 4.15625 -19.429688 4.617188 -19.261719 5.203125 -19.722656 Z M 4.195312 0.167969 C 7.261719 -0.378906 9.359375 -4.828125 10.617188 -8.058594 C 10.828125 -8.601562 10.996094 -8.898438 11.164062 -9.359375 C 11.246094 -9.609375 11.246094 -9.902344 10.996094 -9.988281 C 10.871094 -10.03125 10.617188 -10.03125 10.449219 -9.609375 C 9.609375 -7.429688 7.847656 -4.15625 7.132812 -3.273438 C 6.085938 -1.972656 5.328125 -1.34375 4.53125 -1.34375 C 4.113281 -1.34375 3.230469 -1.636719 3.316406 -2.894531 C 3.355469 -3.523438 3.902344 -6.671875 4.324219 -8.9375 C 4.660156 -10.785156 5.203125 -13.554688 5.203125 -15.277344 C 5.203125 -16.367188 4.195312 -16.914062 3.191406 -16.449219 C 2.980469 -16.367188 2.726562 -15.820312 2.644531 -15.613281 C 2.308594 -14.101562 1.679688 -10.871094 1.089844 -8.351562 C 0.882812 -7.429688 0.546875 -5.582031 0.378906 -4.660156 C -0.292969 -1.007812 1.175781 0.714844 4.195312 0.167969 Z M 4.195312 0.167969 "/></g></g><g transform="translate(249.307229, 103.227875)"><g><path d="M 3.820312 0.292969 C 6.503906 -0.210938 7.847656 -4.027344 9.105469 -6.839844 C 9.148438 -6.925781 9.359375 -7.300781 9.695312 -7.300781 C 9.820312 -7.300781 9.945312 -7.175781 9.945312 -6.964844 C 9.988281 -6.253906 9.945312 -5.539062 9.945312 -4.828125 C 9.945312 -4.324219 9.988281 -3.777344 10.03125 -3.230469 C 10.113281 -2.140625 10.617188 -0.628906 11.707031 -0.167969 C 13.597656 0.628906 15.949219 0 17.753906 -2.769531 C 19.136719 -4.867188 20.773438 -9.441406 20.898438 -9.777344 C 21.027344 -10.15625 21.234375 -10.574219 21.277344 -11.039062 C 21.277344 -11.207031 21.152344 -11.375 20.984375 -11.375 C 20.859375 -11.414062 20.816406 -11.414062 20.730469 -11.375 C 20.480469 -11.121094 20.3125 -10.828125 20.226562 -10.449219 C 19.390625 -7.46875 16.285156 -1.257812 14.015625 -1.886719 C 13.597656 -2.015625 13.261719 -2.390625 13.261719 -3.023438 C 13.261719 -4.910156 13.261719 -6.757812 13.304688 -8.601562 C 13.304688 -10.28125 13.304688 -11.960938 13.175781 -13.640625 C 13.175781 -14.015625 13.011719 -14.3125 12.84375 -14.648438 C 12.546875 -15.023438 12.042969 -14.980469 11.707031 -14.648438 C 11.078125 -14.058594 11.164062 -13.429688 10.953125 -12.128906 C 10.785156 -11.792969 10.660156 -11.457031 10.492188 -11.164062 C 10.03125 -10.238281 9.527344 -9.273438 8.980469 -8.351562 C 7.511719 -5.625 6.589844 -3.316406 4.953125 -2.054688 C 4.40625 -1.636719 3.355469 -1.761719 3.191406 -2.644531 C 2.558594 -5.625 2.980469 -10.703125 5.203125 -13.933594 C 6.464844 -15.738281 7.847656 -16.410156 9.148438 -15.988281 C 10.03125 -15.820312 8.476562 -13.175781 9.527344 -13.175781 C 9.695312 -13.175781 9.820312 -13.175781 10.070312 -13.429688 C 10.492188 -14.144531 10.574219 -14.605469 10.574219 -15.402344 C 10.574219 -16.285156 10.070312 -17.039062 9.234375 -17.121094 C 6.964844 -17.457031 4.324219 -15.78125 2.894531 -13.808594 C -0.0820312 -9.738281 -0.839844 -4.574219 0.378906 -1.46875 C 1.007812 -0.292969 2.476562 0.546875 3.820312 0.292969 Z M 3.820312 0.292969 "/></g></g></g></svg>